<?xml version="1.0" standalone="no"?>
<!DOCTYPE svg PUBLIC "-//W3C//DTD SVG 20010904//EN"
 "http://www.w3.org/TR/2001/REC-SVG-20010904/DTD/svg10.dtd">
<svg version="1.0" xmlns="http://www.w3.org/2000/svg"
 width="1344.000000pt" height="1344.000000pt" viewBox="0 0 1344.000000 1344.000000"
 preserveAspectRatio="xMidYMid meet">
<metadata>
Created by potrace 1.14, written by Peter Selinger 2001-2017
</metadata>
<g transform="translate(0.000000,1344.000000) scale(0.100000,-0.100000)"
fill="#000000" stroke="none">
<path d="M6720 11762 l0 -1682 -97 0 c-54 0 -161 -7 -238 -15 -662 -70 -1262
-317 -1780 -731 -141 -113 -386 -358 -499 -499 -489 -611 -746 -1340 -746
-2115 0 -774 258 -1505 746 -2115 113 -141 358 -386 499 -499 518 -414 1118
-661 1780 -731 77 -8 184 -15 238 -15 l97 0 0 -1682 0 -1681 233 6 c1431 41
2826 554 3955 1454 215 171 368 308 572 513 1075 1076 1749 2481 1920 3999 29
262 40 467 40 751 0 707 -103 1378 -314 2040 -56 177 -105 312 -105 296 -1
-15 -31 16 -31 33 0 9 -6 27 -13 41 -7 14 -21 48 -31 75 -10 28 -25 66 -34 85
-8 19 -23 55 -34 80 -21 49 -60 135 -86 188 -9 19 -15 45 -14 60 2 27 -104
238 -235 466 -475 826 -1140 1559 -1920 2115 -1080 768 -2360 1200 -3670 1238
l-233 6 0 -1681z"/>
</g>
</svg>
